<?xml version="1.0" encoding="UTF-8"?>
<svg version="1.1" xmlns="http://www.w3.org/2000/svg" width="270" height="270">
<path d="M0 0 C6.15234375 -0.09765625 6.15234375 -0.09765625 8 0 C9.92449732 1.92449732 9.15388088 5.52654557 9.15771484 8.15014648 C9.16533592 9.27208405 9.16533592 9.27208405 9.17311096 10.41668701 C9.18383656 12.04600783 9.19244809 13.67534359 9.19923019 15.30468559 C9.21097983 17.880373 9.23042141 20.45588973 9.25234985 23.0315094 C9.31410424 30.3563167 9.36807029 37.6811073 9.40136719 45.00610352 C9.42226174 49.48128738 9.45752269 53.95616188 9.50212479 58.43116951 C9.51632742 60.14041576 9.52501679 61.84971676 9.52817917 63.55901909 C9.5330641 65.9464971 9.55615765 68.33314784 9.58349609 70.72045898 C9.58048996 71.43170425 9.57748383 72.14294952 9.5743866 72.87574768 C9.57665286 75.04770726 9.57665286 75.04770726 10 78 C10.99 78.66 11.98 79.32 13 80 C15.83517487 77.16482513 15.3074878 74.41048184 15.31884766 70.61279297 C15.32889328 69.85172241 15.3389389 69.09065186 15.34928894 68.30651855 C15.38023702 65.78508272 15.39718808 63.26375361 15.4140625 60.7421875 C15.43276483 58.99625727 15.45233753 57.25033615 15.4727478 55.50442505 C15.52417395 50.90461598 15.56374339 46.30477757 15.60089111 41.70483398 C15.64086523 37.01278361 15.69198755 32.32085639 15.7421875 27.62890625 C15.83907081 18.41935721 15.92343572 9.2097388 16 0 C22.15234375 -0.09765625 22.15234375 -0.09765625 24 0 C25.92449732 1.92449732 25.15388088 5.52654557 25.15771484 8.15014648 C25.16533592 9.27208405 25.16533592 9.27208405 25.17311096 10.41668701 C25.18383656 12.04600783 25.19244809 13.67534359 25.19923019 15.30468559 C25.21097983 17.880373 25.23042141 20.45588973 25.25234985 23.0315094 C25.31410424 30.3563167 25.36807029 37.6811073 25.40136719 45.00610352 C25.42226174 49.48128738 25.45752269 53.95616188 25.50212479 58.43116951 C25.51632742 60.14041576 25.52501679 61.84971676 25.52817917 63.55901909 C25.5330641 65.9464971 25.55615765 68.33314784 25.58349609 70.72045898 C25.58048996 71.43170425 25.57748383 72.14294952 25.5743866 72.87574768 C25.57665286 75.04770726 25.57665286 75.04770726 26 78 C27.485 78.99 27.485 78.99 29 80 C31.46484313 77.53515687 31.23481105 76.16419816 31.24884033 72.80117798 C31.24164978 72.07901093 31.23445923 71.35684387 31.22705078 70.61279297 C31.22734283 69.85172241 31.22763489 69.09065186 31.22793579 68.30651855 C31.22653981 65.78495984 31.21096618 63.26369475 31.1953125 60.7421875 C31.19158332 58.99626833 31.1887359 57.25034706 31.18673706 55.50442505 C31.17909311 50.9045028 31.15943813 46.30470643 31.1373291 41.70483398 C31.11688704 37.0128754 31.10773886 32.32089651 31.09765625 27.62890625 C31.07619292 18.41921546 31.04204783 9.20961819 31 0 C33.97 0 36.94 0 40 0 C40.01030746 0.71171356 40.02061493 1.42342712 40.03123474 2.15670776 C40.13027808 8.95001874 40.23291763 15.74326749 40.33933926 22.5364666 C40.39389741 26.02672736 40.44718928 29.51699675 40.49731445 33.00732422 C40.73955131 51.88987674 40.73955131 51.88987674 41.47265625 70.7578125 C41.50975204 71.47170135 41.54684784 72.18559021 41.58506775 72.92111206 C41.76235691 75.83242284 42.07160149 78.21480447 43 81 C43.66 81 44.32 81 45 81 C46.18446884 77.44659348 46.17568753 74.19917553 46.20532227 70.49926758 C46.21522186 69.73805099 46.22512146 68.97683441 46.23532104 68.19255066 C46.26690729 65.67657582 46.29168209 63.16058211 46.31640625 60.64453125 C46.33697826 58.90003468 46.3579748 57.15554307 46.37937927 55.41105652 C46.43457442 50.81946833 46.48399499 46.22783535 46.53222656 41.63616943 C46.58246024 36.95076511 46.63813657 32.26542583 46.69335938 27.58007812 C46.80090968 18.38677432 46.90236162 9.19341404 47 0 C53.15234375 -0.09765625 53.15234375 -0.09765625 55 0 C56.68503699 1.68503699 56.11965983 3.76259884 56.12442017 6.01094055 C56.11902725 7.08555794 56.11902725 7.08555794 56.11352539 8.18188477 C56.11367142 8.93305573 56.11381744 9.68422668 56.1139679 10.4581604 C56.11326863 12.95260459 56.10547564 15.44697503 56.09765625 17.94140625 C56.09579212 19.66633564 56.09436819 21.39126557 56.09336853 23.11619568 C56.08954297 27.66512503 56.07971238 32.21402267 56.06866455 36.76293945 C56.05845124 41.40120006 56.05387108 46.03946577 56.04882812 50.67773438 C56.03809014 59.78517022 56.02101327 68.89258248 56 78 C57.32 78.66 58.64 79.32 60 80 C62.83517487 77.16482513 62.3074878 74.41048184 62.31884766 70.61279297 C62.32889328 69.85172241 62.3389389 69.09065186 62.34928894 68.30651855 C62.38023702 65.78508272 62.39718808 63.26375361 62.4140625 60.7421875 C62.43276483 58.99625727 62.45233753 57.25033615 62.4727478 55.50442505 C62.52417395 50.90461598 62.56374339 46.30477757 62.60089111 41.70483398 C62.64086523 37.01278361 62.69198755 32.32085639 62.7421875 27.62890625 C62.83907081 18.41935721 62.92343572 9.2097388 63 0 C65.97 0 68.94 0 72 0 C72.00586624 0.97052811 72.01173248 1.94105621 72.01777649 2.94099426 C72.07494296 12.07894885 72.14767245 21.21666407 72.23571491 30.35437489 C72.2804784 35.05239466 72.31972118 39.7503265 72.34643555 44.44848633 C72.3724091 48.98089665 72.41276885 53.5129697 72.46318626 58.04517174 C72.47989537 59.7759145 72.49138441 61.50671564 72.49761391 63.23752785 C72.50721132 65.65846903 72.53521671 68.07853949 72.56762695 70.49926758 C72.56619186 71.21783936 72.56475677 71.93641113 72.5632782 72.67675781 C72.59613909 76.53340468 72.59613909 76.53340468 74.46452332 79.78129578 C74.97123062 80.18346817 75.47793793 80.58564056 76 81 C76.99137076 83.97411229 77.12990307 85.93956644 77.1418457 89.04370117 C77.15239738 90.58757759 77.15239738 90.58757759 77.16316223 92.16264343 C77.16732651 93.27815079 77.17149078 94.39365814 77.17578125 95.54296875 C77.19900954 97.92123252 77.22312802 100.29948772 77.24804688 102.67773438 C77.28291545 106.41403681 77.31236398 110.15003056 77.32592773 113.88647461 C77.42111417 135.83060942 78.31367779 155.77572199 94.1796875 172.63671875 C104.9622313 181.67195282 117.32651662 184.48072407 131 186 C131 213.06 131 240.12 131 268 C123.74799369 268 117.24525418 267.8675717 110.1875 266.75 C108.89392578 266.54866455 108.89392578 266.54866455 107.57421875 266.34326172 C85.53511909 262.73977053 64.13617637 253.43420665 47 239 C45.58894033 237.9507505 44.17231842 236.90893627 42.75 235.875 C39.54117453 233.4683809 36.74003841 230.9455413 34 228 C33.42894531 227.39929688 32.85789063 226.79859375 32.26953125 226.1796875 C26.17853562 219.59022716 21.03308407 212.40852198 16 205 C15.43152344 204.16726562 14.86304687 203.33453125 14.27734375 202.4765625 C3.69421335 185.9386574 -3.08482445 164.34448472 -3.14526367 144.73535156 C-3.14862228 144.04664474 -3.1519809 143.35793793 -3.15544128 142.64836121 C-3.16486014 140.39576364 -3.16688907 138.14324097 -3.16796875 135.890625 C-3.17118511 134.3159787 -3.17454947 132.7413327 -3.17805481 131.16668701 C-3.1840215 127.87853298 -3.18589699 124.59040515 -3.18530273 121.30224609 C-3.18520067 117.08658205 -3.19890949 112.87108475 -3.21607494 108.65546036 C-3.22717747 105.40929386 -3.22922257 102.1631681 -3.22869301 98.91698456 C-3.22987358 97.36203176 -3.23429969 95.80707792 -3.24202538 94.25214386 C-3.25180015 92.0836652 -3.24895857 89.91555463 -3.24291992 87.74707031 C-3.24434494 86.51353821 -3.24576996 85.2800061 -3.24723816 84.00909424 C-3 81 -3 81 -1 78 C-0.78749243 75.46496514 -0.68877825 73.03597597 -0.68115234 70.49926758 C-0.66608391 69.3574427 -0.66608391 69.3574427 -0.65071106 68.19255066 C-0.61982116 65.67655187 -0.60282796 63.16065976 -0.5859375 60.64453125 C-0.5672305 58.9000303 -0.54765744 57.15553843 -0.5272522 55.41105652 C-0.47587543 50.81948196 -0.43627943 46.22787805 -0.39910889 41.63616943 C-0.35910396 36.95073146 -0.30799562 32.26541618 -0.2578125 27.58007812 C-0.16098759 18.38680487 -0.07660384 9.19346242 0 0 Z " fill="#024DA0" transform="translate(3,1)"/>
<path d="M0 0 C2.87413623 -0.01896665 5.74814558 -0.03279343 8.62231445 -0.04370117 C9.43019661 -0.04955986 10.23807877 -0.05541855 11.0704422 -0.06145477 C17.25428694 -0.07903451 23.12078722 0.44773235 29.1875 1.6875 C30.11038818 1.86684082 31.03327637 2.04618164 31.98413086 2.23095703 C60.26505485 7.97625049 93.26827817 24.30803476 110 49 C110 49.66 110 50.32 110 51 C110.66 51 111.32 51 112 51 C113.64859501 53.13275488 115.1492641 55.25063921 116.625 57.5 C117.0694043 58.17635498 117.51380859 58.85270996 117.97167969 59.54956055 C124.36174872 69.47200669 129.45987573 79.77779665 133.3125 90.9375 C133.54291992 91.59145752 133.77333984 92.24541504 134.01074219 92.91918945 C134.77229357 95.26171481 135.40006973 97.61061884 136 100 C136.27142822 101.06637695 136.54285645 102.13275391 136.82250977 103.23144531 C139.90317642 117.56478648 139.41591228 132.15107697 139.3225708 146.73327637 C139.30901299 149.61657116 139.31433766 152.4997121 139.31969929 155.38302422 C139.32303404 158.16940023 139.31642364 160.95568081 139.30657005 163.74203873 C139.30087698 165.70911118 139.30215046 167.67619983 139.30354309 169.64328003 C139.29401108 170.8294693 139.28447906 172.01565857 139.2746582 173.23779297 C139.27005081 174.28127899 139.26544342 175.32476501 139.26069641 176.39987183 C139 179 139 179 137 182 C136.34 182 135.68 182 135 182 C135.33 209.72 135.66 237.44 136 266 C133.03 266 130.06 266 127 266 C126.35600173 252.8680016 125.91508476 239.74887615 125.75390625 226.6015625 C125.73725922 225.29556091 125.72061218 223.98955933 125.70346069 222.64398193 C125.63691654 217.25179898 125.57339448 211.85964316 125.52319336 206.46728516 C125.49761635 203.75514617 125.4668936 201.0431603 125.43040466 198.33114624 C125.39668361 195.80717281 125.37072071 193.28308096 125.35340881 190.75894165 C125.33676682 189.63531219 125.32012482 188.51168274 125.30297852 187.35400391 C125.28751732 185.87040878 125.28751732 185.87040878 125.27174377 184.35684204 C125.22560147 181.81129468 125.22560147 181.81129468 123 180 C122.01 180.66 121.02 181.32 120 182 C119.71368017 184.72180044 119.62168966 187.21520901 119.65942383 189.93798828 C119.65876671 191.16737625 119.65876671 191.16737625 119.65809631 192.42160034 C119.66019094 195.13807778 119.68355335 197.85394253 119.70703125 200.5703125 C119.71262482 202.45075137 119.71689604 204.3311946 119.71989441 206.2116394 C119.73136205 211.1667279 119.76084565 216.1215536 119.79400635 221.07653809 C119.82466596 226.1304163 119.83839094 231.18433689 119.85351562 236.23828125 C119.88571357 246.15896979 119.93693301 256.07946306 120 266 C117.03 266 114.06 266 111 266 C111 238.28 111 210.56 111 182 C109.35 181.67 107.7 181.34 106 181 C103.99498083 183.00501917 104.8252909 187.05917843 104.81054688 189.80859375 C104.79810692 191.03535324 104.79810692 191.03535324 104.78541565 192.28689575 C104.7679764 194.06845126 104.75282029 195.85003021 104.73963928 197.63162231 C104.71868335 200.44645309 104.69165565 203.26116589 104.66296387 206.07592773 C104.60315964 212.05057364 104.55104662 218.02527369 104.5 224 C104.44087452 230.92031236 104.37866063 237.84056646 104.30812073 244.76077271 C104.28144433 247.54223788 104.2606912 250.32370858 104.2401123 253.10522461 C104.22351644 254.80062136 104.20664524 256.49601544 104.18945312 258.19140625 C104.18526871 258.97170197 104.18108429 259.75199768 104.17677307 260.55593872 C104.11384346 265.88615654 104.11384346 265.88615654 103 267 C99.5 267.125 99.5 267.125 96 267 C94.01058099 265.01058099 94.84598328 261.03906823 94.84228516 258.31494141 C94.83720444 257.5100679 94.83212372 256.7051944 94.82688904 255.87593079 C94.81616193 254.12219976 94.807551 252.36845485 94.80076981 250.61470413 C94.7890191 247.84131874 94.76957653 245.06809179 94.74765015 242.29476929 C94.68590394 234.40750376 94.63195527 226.52025327 94.59863281 218.6328125 C94.5777223 213.81399168 94.54244664 208.99545728 94.49787521 204.17679977 C94.48368387 202.33719626 94.47498574 200.49754204 94.47182083 198.65788651 C94.46692853 196.08623413 94.44381443 193.51534561 94.41650391 190.94384766 C94.41951004 190.18009323 94.42251617 189.41633881 94.4256134 188.62944031 C94.38633328 184.52331008 94.38633328 184.52331008 92.47396851 181.00350952 C91.9875589 180.67235138 91.50114929 180.34119324 91 180 C88.05708354 182.94291646 88.69197558 186.08354391 88.68115234 190.02978516 C88.67110672 190.85913071 88.6610611 191.68847626 88.65071106 192.54295349 C88.61975338 195.29164926 88.60280916 198.0402471 88.5859375 200.7890625 C88.56723596 202.6919337 88.54766332 204.59479652 88.5272522 206.49765015 C88.47581783 211.51174998 88.43625276 216.52587674 88.39910889 221.5401001 C88.35913993 226.65440593 88.30801526 231.76859869 88.2578125 236.8828125 C88.16091945 246.9217957 88.07655764 256.96084258 88 267 C81.84765625 267.09765625 81.84765625 267.09765625 80 267 C78.00869496 265.00869496 78.84597974 261.02615986 78.84228516 258.29907227 C78.83720444 257.49259247 78.83212372 256.68611267 78.82688904 255.85519409 C78.81616242 254.09818686 78.80755129 252.34116576 78.80076981 250.58413887 C78.78902198 247.80682754 78.76958087 245.02967463 78.74765015 242.25242615 C78.68588938 234.35412837 78.63192645 226.45584608 78.59863281 218.55737305 C78.57774121 213.73207268 78.54248253 208.90705939 78.49787521 204.08192253 C78.48367026 202.23870145 78.4749827 200.39542956 78.47182083 198.55215645 C78.46693733 195.97790409 78.44384698 193.40441977 78.41650391 190.83032227 C78.41951004 190.06297256 78.42251617 189.29562286 78.4256134 188.50502014 C78.42365395 186.16802263 78.42365395 186.16802263 78 183 C76.515 182.01 76.515 182.01 75 181 C74.01 181.66 73.02 182.32 72 183 C71.71368017 185.72180044 71.62168966 188.21520901 71.65942383 190.93798828 C71.65876671 192.16737625 71.65876671 192.16737625 71.65809631 193.42160034 C71.66019094 196.13807778 71.68355335 198.85394253 71.70703125 201.5703125 C71.71262482 203.45075137 71.71689604 205.3311946 71.71989441 207.2116394 C71.73136205 212.1667279 71.76084565 217.1215536 71.79400635 222.07653809 C71.82466596 227.1304163 71.83839094 232.18433689 71.85351562 237.23828125 C71.88571357 247.15896979 71.93693301 257.07946306 72 267 C69.03 267 66.06 267 63 267 C63 238.95 63 210.9 63 182 C61.68 181.34 60.36 180.68 59 180 C57.78531757 177.04098247 57.87049938 174.05689897 57.8581543 170.88696289 C57.85111984 169.86812515 57.84408539 168.84928741 57.83683777 167.79957581 C57.83267349 166.70169235 57.82850922 165.6038089 57.82421875 164.47265625 C57.80100265 162.12954848 57.77688462 159.78644952 57.75195312 157.44335938 C57.71699871 153.76385766 57.68758142 150.08467601 57.67407227 146.4050293 C57.58665015 126.47413198 56.75274911 109.08803886 42 94 C30.14812807 84.65406979 18.45332523 80.02704326 3.3359375 79.2109375 C1 79 1 79 0 78 C-0.09498646 75.56603981 -0.12558417 73.16057048 -0.11352539 70.72631836 C-0.11367142 69.96539383 -0.11381744 69.2044693 -0.1139679 68.42048645 C-0.11326862 65.89357702 -0.10547555 63.36674038 -0.09765625 60.83984375 C-0.09579212 59.0924941 -0.0943682 57.34514393 -0.09336853 55.59779358 C-0.08954293 50.98968066 -0.07971229 46.38159905 -0.06866455 41.77349854 C-0.05845134 37.07491479 -0.0538711 32.37632601 -0.04882812 27.67773438 C-0.03809005 18.45180913 -0.02101313 9.22590716 0 0 Z " fill="#024DA0" transform="translate(131,1)"/>
<path d="M0 0 C8.48731226 4.9121773 15.57127133 12.76455342 19 22 C21.89294842 33.39705184 20.6142564 45.07582107 14.71484375 55.20703125 C8.81275201 63.80534317 0.24218547 69.89935759 -10 72 C-22.11035017 73.36990842 -32.74323983 72.04729137 -42.8125 64.75 C-51.69530263 57.26306636 -56.29306365 48.17974476 -58 36.6875 C-58.53651029 27.55373946 -55.74816099 17.79254506 -49.75 10.8046875 C-48.88375 9.91136719 -48.88375 9.91136719 -48 9 C-47.34 8.30132812 -46.68 7.60265625 -46 6.8828125 C-40.57478222 1.59322516 -35.22209486 -0.90440854 -28 -3 C-18.73558362 -6.08813879 -8.64491848 -3.99951688 0 0 Z " fill="#EB1B23" transform="translate(153,99)"/>
</svg>
